<?xml version="1.0" standalone="yes"?>

<svg version="1.1" viewBox="0.0 0.0 560.3779527559055 450.0" fill="none" stroke="none" stroke-linecap="square" stroke-miterlimit="10" xmlns="http://www.w3.org/2000/svg" xmlns:xlink="http://www.w3.org/1999/xlink"><clipPath id="p.0"><path d="m0 0l560.3779 0l0 450.0l-560.3779 0l0 -450.0z" clip-rule="nonzero"></path></clipPath><g clip-path="url(#p.0)"><path fill="#000000" fill-opacity="0.0" d="m0 0l560.3779 0l0 450.0l-560.3779 0z" fill-rule="evenodd"></path><path fill="#f9cb9c" d="m201.1804 132.52472l70.29921 0l0 38.645676l-70.29921 0z" fill-rule="evenodd"></path><path stroke="#000000" stroke-width="1.0" stroke-linejoin="round" stroke-linecap="butt" d="m201.1804 132.52472l70.29921 0l0 38.645676l-70.29921 0z" fill-rule="evenodd"></path><path fill="#000000" d="m222.06107 156.92755l0 -10.734375l1.421875 0l0 4.40625l5.578125 0l0 -4.40625l1.421875 0l0 10.734375l-1.421875 0l0 -5.0625l-5.578125 0l0 5.0625l-1.421875 0zm15.693634 -2.5l1.359375 0.15625q-0.3125 1.203125 -1.1875 1.859375q-0.875 0.65625 -2.234375 0.65625q-1.703125 0 -2.7031097 -1.046875q-1.0 -1.046875 -1.0 -2.953125q0 -1.953125 1.015625 -3.03125q1.0156097 -1.09375 2.6249847 -1.09375q1.5625 0 2.546875 1.0625q0.984375 1.0625 0.984375 2.984375q0 0.125 0 0.359375l-5.8125 0q0.078125 1.28125 0.71875 1.96875q0.65625 0.671875 1.640625 0.671875q0.71875 0 1.234375 -0.375q0.515625 -0.390625 0.8125 -1.21875zm-4.328125 -2.140625l4.34375 0q-0.09375 -0.984375 -0.5 -1.46875q-0.625 -0.765625 -1.625 -0.765625q-0.921875 0 -1.546875 0.609375q-0.609375 0.609375 -0.671875 1.625zm7.151108 4.640625l0 -7.78125l1.1875 0l0 1.09375q0.359375 -0.578125 0.96875 -0.921875q0.609375 -0.34375 1.390625 -0.34375q0.859375 0 1.40625 0.359375q0.5625 0.359375 0.78125 1.0q0.921875 -1.359375 2.40625 -1.359375q1.15625 0 1.78125 0.640625q0.625 0.640625 0.625 1.96875l0 5.34375l-1.3125 0l0 -4.90625q0 -0.78125 -0.125 -1.125q-0.125 -0.359375 -0.46875 -0.5625q-0.34375 -0.21875 -0.796875 -0.21875q-0.8125 0 -1.359375 0.546875q-0.546875 0.546875 -0.546875 1.75l0 4.515625l-1.3125 0l0 -5.046875q0 -0.890625 -0.328125 -1.328125q-0.3125 -0.4375 -1.046875 -0.4375q-0.5625 0 -1.03125 0.296875q-0.46875 0.296875 -0.6875 0.859375q-0.203125 0.5625 -0.203125 1.625l0 4.03125l-1.328125 0z" fill-rule="nonzero"></path><path fill="#000000" fill-opacity="0.0" d="m236.33002 171.1704l0 17.38443l-40.503937 0l0 17.387222" fill-rule="evenodd"></path><path stroke="#000000" stroke-width="1.0" stroke-linejoin="round" stroke-linecap="butt" d="m236.33002 171.1704l0 17.38443l-40.503937 0l0 17.387222" fill-rule="evenodd"></path><path fill="#f9cb9c" d="m151.60728 205.93896l88.44095 0l0 38.645676l-88.44095 0z" fill-rule="evenodd"></path><path stroke="#000000" stroke-width="1.0" stroke-linejoin="round" stroke-linecap="butt" d="m151.60728 205.93896l88.44095 0l0 38.645676l-88.44095 0z" fill-rule="evenodd"></path><path fill="#000000" d="m163.50876 226.88867l1.34375 -0.109375q0.09375 0.796875 0.4375 1.3125q0.359375 0.515625 1.078125 0.84375q0.734375 0.3125 1.65625 0.3125q0.8125 0 1.4375 -0.234375q0.625 -0.25 0.921875 -0.671875q0.3125 -0.421875 0.3125 -0.921875q0 -0.5 -0.296875 -0.875q-0.296875 -0.375 -0.96875 -0.640625q-0.4375 -0.15625 -1.921875 -0.515625q-1.46875 -0.359375 -2.0625 -0.671875q-0.765625 -0.40625 -1.15625 -1.0q-0.375 -0.59375 -0.375 -1.34375q0 -0.8125 0.453125 -1.515625q0.46875 -0.703125 1.359375 -1.0625q0.890625 -0.375 1.96875 -0.375q1.203125 0 2.109375 0.390625q0.90625 0.375 1.390625 1.125q0.5 0.75 0.546875 1.6875l-1.375 0.109375q-0.109375 -1.015625 -0.75 -1.53125q-0.625 -0.53125 -1.859375 -0.53125q-1.28125 0 -1.875 0.484375q-0.59375 0.46875 -0.59375 1.125q0 0.578125 0.421875 0.953125q0.40625 0.375 2.140625 0.765625q1.734375 0.390625 2.375 0.6875q0.9375 0.4375 1.375 1.109375q0.453125 0.65625 0.453125 1.515625q0 0.859375 -0.5 1.625q-0.484375 0.75 -1.40625 1.171875q-0.90625 0.421875 -2.0625 0.421875q-1.453125 0 -2.4375 -0.421875q-0.984375 -0.4375 -1.546875 -1.28125q-0.5625 -0.859375 -0.59375 -1.9375zm15.166229 2.5q-0.734375 0.609375 -1.40625 0.875q-0.671875 0.25 -1.453125 0.25q-1.28125 0 -1.96875 -0.625q-0.6875 -0.625 -0.6875 -1.59375q0 -0.578125 0.25 -1.046875q0.265625 -0.46875 0.6875 -0.75q0.421875 -0.296875 0.953125 -0.4375q0.375 -0.109375 1.171875 -0.203125q1.59375 -0.1875 2.34375 -0.453125q0.015625 -0.265625 0.015625 -0.34375q0 -0.8125 -0.375 -1.140625q-0.515625 -0.4375 -1.5 -0.4375q-0.9375 0 -1.390625 0.328125q-0.4375 0.3125 -0.640625 1.140625l-1.296875 -0.171875q0.171875 -0.828125 0.578125 -1.328125q0.40625 -0.515625 1.171875 -0.78125q0.765625 -0.28125 1.765625 -0.28125q1.0 0 1.609375 0.234375q0.625 0.234375 0.921875 0.59375q0.296875 0.34375 0.40625 0.890625q0.0625 0.34375 0.0625 1.21875l0 1.75q0 1.84375 0.078125 2.328125q0.09375 0.484375 0.34375 0.9375l-1.375 0q-0.203125 -0.40625 -0.265625 -0.953125zm-0.109375 -2.953125q-0.71875 0.296875 -2.15625 0.5q-0.8125 0.125 -1.15625 0.265625q-0.328125 0.140625 -0.515625 0.421875q-0.171875 0.28125 -0.171875 0.625q0 0.53125 0.390625 0.890625q0.40625 0.34375 1.171875 0.34375q0.765625 0 1.359375 -0.328125q0.59375 -0.34375 0.875 -0.921875q0.203125 -0.4375 0.203125 -1.3125l0 -0.484375zm3.1823578 3.90625l0 -7.78125l1.1875 0l0 1.09375q0.359375 -0.578125 0.96875 -0.921875q0.609375 -0.34375 1.390625 -0.34375q0.859375 0 1.40625 0.359375q0.5625 0.359375 0.78125 1.0q0.921875 -1.359375 2.40625 -1.359375q1.15625 0 1.78125 0.640625q0.625 0.640625 0.625 1.96875l0 5.34375l-1.3125 0l0 -4.90625q0 -0.78125 -0.125 -1.125q-0.125 -0.359375 -0.46875 -0.5625q-0.34375 -0.21875 -0.796875 -0.21875q-0.8125 0 -1.359375 0.546875q-0.546875 0.546875 -0.546875 1.75l0 4.515625l-1.3125 0l0 -5.046875q0 -0.890625 -0.328125 -1.328125q-0.3125 -0.4375 -1.046875 -0.4375q-0.5625 0 -1.03125 0.296875q-0.46875 0.296875 -0.6875 0.859375q-0.203125 0.5625 -0.203125 1.625l0 4.03125l-1.328125 0zm12.177521 0l0 -10.734375l1.328125 0l0 10.734375l-1.328125 0zm3.3030243 -9.21875l0 -1.515625l1.3125 0l0 1.515625l-1.3125 0zm0 9.21875l0 -7.78125l1.3125 0l0 7.78125l-1.3125 0zm3.2405243 0l0 -7.78125l1.1875 0l0 1.109375q0.859375 -1.28125 2.484375 -1.28125q0.703125 0 1.28125 0.25q0.59375 0.25 0.890625 0.671875q0.296875 0.40625 0.40625 0.96875q0.078125 0.359375 0.078125 1.28125l0 4.78125l-1.328125 0l0 -4.734375q0 -0.796875 -0.15625 -1.1875q-0.140625 -0.40625 -0.53125 -0.640625q-0.390625 -0.25 -0.921875 -0.25q-0.84375 0 -1.453125 0.53125q-0.609375 0.53125 -0.609375 2.03125l0 4.25l-1.328125 0zm7.916733 0.640625l1.28125 0.1875q0.078125 0.59375 0.4375 0.875q0.5 0.359375 1.34375 0.359375q0.921875 0 1.421875 -0.375q0.5 -0.359375 0.671875 -1.015625q0.09375 -0.40625 0.09375 -1.6875q-0.859375 1.015625 -2.15625 1.015625q-1.609375 0 -2.484375 -1.15625q-0.875 -1.15625 -0.875 -2.78125q0 -1.109375 0.40625 -2.046875q0.40625 -0.9375 1.15625 -1.453125q0.765625 -0.515625 1.8125 -0.515625q1.375 0 2.265625 1.109375l0 -0.9375l1.21875 0l0 6.71875q0 1.828125 -0.375 2.578125q-0.375 0.765625 -1.171875 1.203125q-0.796875 0.4375 -1.96875 0.4375q-1.390625 0 -2.25 -0.625q-0.859375 -0.625 -0.828125 -1.890625zm1.09375 -4.671875q0 1.53125 0.59375 2.234375q0.609375 0.703125 1.53125 0.703125q0.90625 0 1.515625 -0.6875q0.625 -0.703125 0.625 -2.203125q0 -1.421875 -0.640625 -2.140625q-0.625 -0.734375 -1.515625 -0.734375q-0.890625 0 -1.5 0.71875q-0.609375 0.703125 -0.609375 2.109375zm12.369858 3.078125q-0.734375 0.609375 -1.40625 0.875q-0.671875 0.25 -1.453125 0.25q-1.28125 0 -1.96875 -0.625q-0.6875 -0.625 -0.6875 -1.59375q0 -0.578125 0.25 -1.046875q0.265625 -0.46875 0.6875 -0.75q0.421875 -0.296875 0.953125 -0.4375q0.375 -0.109375 1.171875 -0.203125q1.59375 -0.1875 2.34375 -0.453125q0.015625 -0.265625 0.015625 -0.34375q0 -0.8125 -0.375 -1.140625q-0.515625 -0.4375 -1.5 -0.4375q-0.9375 0 -1.390625 0.328125q-0.4375 0.3125 -0.640625 1.140625l-1.296875 -0.171875q0.171875 -0.828125 0.578125 -1.328125q0.40625 -0.515625 1.171875 -0.78125q0.765625 -0.28125 1.765625 -0.28125q1.0 0 1.609375 0.234375q0.625 0.234375 0.921875 0.59375q0.296875 0.34375 0.40625 0.890625q0.0625 0.34375 0.0625 1.21875l0 1.75q0 1.84375 0.078125 2.328125q0.09375 0.484375 0.34375 0.9375l-1.375 0q-0.203125 -0.40625 -0.265625 -0.953125zm-0.109375 -2.953125q-0.71875 0.296875 -2.15625 0.5q-0.8125 0.125 -1.15625 0.265625q-0.328125 0.140625 -0.515625 0.421875q-0.171875 0.28125 -0.171875 0.625q0 0.53125 0.390625 0.890625q0.40625 0.34375 1.171875 0.34375q0.765625 0 1.359375 -0.328125q0.59375 -0.34375 0.875 -0.921875q0.203125 -0.4375 0.203125 -1.3125l0 -0.484375zm3.1667328 3.90625l0 -7.78125l1.1875 0l0 1.1875q0.453125 -0.828125 0.84375 -1.09375q0.390625 -0.265625 0.84375 -0.265625q0.671875 0 1.359375 0.421875l-0.453125 1.21875q-0.484375 -0.28125 -0.96875 -0.28125q-0.4375 0 -0.78125 0.265625q-0.34375 0.25 -0.484375 0.71875q-0.21875 0.703125 -0.21875 1.53125l0 4.078125l-1.328125 0z" fill-rule="nonzero"></path><path fill="#ea9999" d="m310.37534 205.93964l129.44879 0l0 38.64566l-129.44879 0z" fill-rule="evenodd"></path><path stroke="#000000" stroke-width="1.0" stroke-linejoin="round" stroke-linecap="butt" d="m310.37534 205.93964l129.44879 0l0 38.64566l-129.44879 0z" fill-rule="evenodd"></path><path fill="#000000" d="m320.92468 230.34247l4.125 -10.734375l1.515625 0l4.40625 10.734375l-1.625 0l-1.25 -3.25l-4.484375 0l-1.1875 3.25l-1.5 0zm3.09375 -4.40625l3.640625 0l-1.125 -2.984375q-0.515625 -1.34375 -0.765625 -2.21875q-0.203125 1.03125 -0.578125 2.046875l-1.171875 3.15625zm12.728729 4.40625l0 -0.984375q-0.734375 1.15625 -2.171875 1.15625q-0.921875 0 -1.703125 -0.5q-0.78125 -0.515625 -1.21875 -1.4375q-0.421875 -0.921875 -0.421875 -2.109375q0 -1.171875 0.390625 -2.109375q0.390625 -0.953125 1.15625 -1.453125q0.78125 -0.515625 1.734375 -0.515625q0.703125 0 1.25 0.296875q0.5625 0.296875 0.90625 0.765625l0 -3.84375l1.3125 0l0 10.734375l-1.234375 0zm-4.15625 -3.875q0 1.484375 0.625 2.234375q0.625 0.734375 1.484375 0.734375q0.859375 0 1.46875 -0.703125q0.609375 -0.71875 0.609375 -2.15625q0 -1.609375 -0.625 -2.34375q-0.609375 -0.75 -1.515625 -0.75q-0.875 0 -1.46875 0.71875q-0.578125 0.71875 -0.578125 2.265625zm7.260498 3.875l0 -7.78125l1.1875 0l0 1.09375q0.359375 -0.578125 0.96875 -0.921875q0.609375 -0.34375 1.390625 -0.34375q0.859375 0 1.40625 0.359375q0.5625 0.359375 0.78125 1.0q0.921875 -1.359375 2.40625 -1.359375q1.15625 0 1.78125 0.640625q0.625 0.640625 0.625 1.96875l0 5.34375l-1.3125 0l0 -4.90625q0 -0.78125 -0.125 -1.125q-0.125 -0.359375 -0.46875 -0.5625q-0.34375 -0.21875 -0.796875 -0.21875q-0.8125 0 -1.359375 0.546875q-0.546875 0.546875 -0.546875 1.75l0 4.515625l-1.3125 0l0 -5.046875q0 -0.890625 -0.328125 -1.328125q-0.3125 -0.4375 -1.046875 -0.4375q-0.5625 0 -1.03125 0.296875q-0.46875 0.296875 -0.6875 0.859375q-0.203125 0.5625 -0.203125 1.625l0 4.03125l-1.328125 0zm12.224396 -9.21875l0 -1.515625l1.3125 0l0 1.515625l-1.3125 0zm0 9.21875l0 -7.78125l1.3125 0l0 7.78125l-1.3125 0zm3.240509 0l0 -7.78125l1.1875 0l0 1.109375q0.859375 -1.28125 2.484375 -1.28125q0.703125 0 1.28125 0.25q0.59375 0.25 0.890625 0.671875q0.296875 0.40625 0.40625 0.96875q0.078125 0.359375 0.078125 1.28125l0 4.78125l-1.328125 0l0 -4.734375q0 -0.796875 -0.15625 -1.1875q-0.140625 -0.40625 -0.53125 -0.640625q-0.390625 -0.25 -0.921875 -0.25q-0.84375 0 -1.453125 0.53125q-0.609375 0.53125 -0.609375 2.03125l0 4.25l-1.328125 0zm8.166748 -9.21875l0 -1.515625l1.3125 0l0 1.515625l-1.3125 0zm0 9.21875l0 -7.78125l1.3125 0l0 7.78125l-1.3125 0zm2.724884 -2.328125l1.296875 -0.203125q0.109375 0.78125 0.609375 1.203125q0.5 0.421875 1.40625 0.421875q0.90625 0 1.34375 -0.359375q0.4375 -0.375 0.4375 -0.875q0 -0.453125 -0.390625 -0.703125q-0.265625 -0.1875 -1.34375 -0.453125q-1.453125 -0.359375 -2.015625 -0.625q-0.546875 -0.28125 -0.84375 -0.75q-0.28125 -0.46875 -0.28125 -1.046875q0 -0.515625 0.234375 -0.953125q0.234375 -0.453125 0.640625 -0.734375q0.3125 -0.234375 0.84375 -0.390625q0.53125 -0.15625 1.140625 -0.15625q0.90625 0 1.59375 0.265625q0.703125 0.265625 1.03125 0.71875q0.328125 0.4375 0.453125 1.203125l-1.28125 0.171875q-0.09375 -0.609375 -0.515625 -0.9375q-0.421875 -0.34375 -1.1875 -0.34375q-0.90625 0 -1.296875 0.3125q-0.390625 0.296875 -0.390625 0.703125q0 0.25 0.15625 0.453125q0.171875 0.21875 0.515625 0.359375q0.1875 0.0625 1.15625 0.328125q1.40625 0.375 1.953125 0.609375q0.5625 0.234375 0.875 0.703125q0.3125 0.453125 0.3125 1.125q0 0.65625 -0.390625 1.234375q-0.375 0.578125 -1.109375 0.90625q-0.71875 0.3125 -1.640625 0.3125q-1.515625 0 -2.3125 -0.625q-0.78125 -0.625 -1.0 -1.875zm10.734375 1.15625l0.1875 1.15625q-0.5625 0.125 -1.0 0.125q-0.71875 0 -1.125 -0.234375q-0.390625 -0.234375 -0.546875 -0.59375q-0.15625 -0.375 -0.15625 -1.5625l0 -4.46875l-0.96875 0l0 -1.03125l0.96875 0l0 -1.921875l1.3125 -0.796875l0 2.71875l1.328125 0l0 1.03125l-1.328125 0l0 4.546875q0 0.5625 0.0625 0.734375q0.078125 0.15625 0.234375 0.25q0.15625 0.09375 0.4375 0.09375q0.234375 0 0.59375 -0.046875zm1.165741 1.171875l0 -7.78125l1.1875 0l0 1.1875q0.453125 -0.828125 0.84375 -1.09375q0.390625 -0.265625 0.84375 -0.265625q0.671875 0 1.359375 0.421875l-0.453125 1.21875q-0.484375 -0.28125 -0.96875 -0.28125q-0.4375 0 -0.78125 0.265625q-0.34375 0.25 -0.484375 0.71875q-0.21875 0.703125 -0.21875 1.53125l0 4.078125l-1.328125 0zm9.974396 -0.953125q-0.734375 0.609375 -1.40625 0.875q-0.671875 0.25 -1.453125 0.25q-1.28125 0 -1.96875 -0.625q-0.6875 -0.625 -0.6875 -1.59375q0 -0.578125 0.25 -1.046875q0.265625 -0.46875 0.6875 -0.75q0.421875 -0.296875 0.953125 -0.4375q0.375 -0.109375 1.171875 -0.203125q1.59375 -0.1875 2.34375 -0.453125q0.015625 -0.265625 0.015625 -0.34375q0 -0.8125 -0.375 -1.140625q-0.515625 -0.4375 -1.5 -0.4375q-0.9375 0 -1.390625 0.328125q-0.4375 0.3125 -0.640625 1.140625l-1.296875 -0.171875q0.171875 -0.828125 0.578125 -1.328125q0.40625 -0.515625 1.171875 -0.78125q0.765625 -0.28125 1.765625 -0.28125q1.0 0 1.609375 0.234375q0.625 0.234375 0.921875 0.59375q0.296875 0.34375 0.40625 0.890625q0.0625 0.34375 0.0625 1.21875l0 1.75q0 1.84375 0.078125 2.328125q0.09375 0.484375 0.34375 0.9375l-1.375 0q-0.203125 -0.40625 -0.265625 -0.953125zm-0.109375 -2.953125q-0.71875 0.296875 -2.15625 0.5q-0.8125 0.125 -1.15625 0.265625q-0.328125 0.140625 -0.515625 0.421875q-0.171875 0.28125 -0.171875 0.625q0 0.53125 0.390625 0.890625q0.40625 0.34375 1.171875 0.34375q0.765625 0 1.359375 -0.328125q0.59375 -0.34375 0.875 -0.921875q0.203125 -0.4375 0.203125 -1.3125l0 -0.484375zm6.0729675 2.734375l0.1875 1.15625q-0.5625 0.125 -1.0 0.125q-0.71875 0 -1.125 -0.234375q-0.390625 -0.234375 -0.546875 -0.59375q-0.15625 -0.375 -0.15625 -1.5625l0 -4.46875l-0.96875 0l0 -1.03125l0.96875 0l0 -1.921875l1.3125 -0.796875l0 2.71875l1.328125 0l0 1.03125l-1.328125 0l0 4.546875q0 0.5625 0.0625 0.734375q0.078125 0.15625 0.234375 0.25q0.15625 0.09375 0.4375 0.09375q0.234375 0 0.59375 -0.046875zm0.69699097 -2.71875q0 -2.15625 1.203125 -3.203125q1.0 -0.859375 2.4375 -0.859375q1.609375 0 2.625 1.046875q1.015625 1.046875 1.015625 2.90625q0 1.5 -0.453125 2.359375q-0.4375 0.859375 -1.3125 1.34375q-0.859375 0.46875 -1.875 0.46875q-1.625 0 -2.640625 -1.046875q-1.0 -1.046875 -1.0 -3.015625zm1.359375 0q0 1.5 0.640625 2.25q0.65625 0.734375 1.640625 0.734375q0.984375 0 1.640625 -0.75q0.65625 -0.75 0.65625 -2.28125q0 -1.4375 -0.65625 -2.171875q-0.65625 -0.75 -1.640625 -0.75q-0.984375 0 -1.640625 0.734375q-0.640625 0.734375 -0.640625 2.234375zm0.59375 -5.40625l0 -1.5l1.375 0l0 1.5l-1.375 0zm2.71875 0l0 -1.5l1.390625 0l0 1.5l-1.390625 0zm3.9479675 9.296875l0 -7.78125l1.1875 0l0 1.1875q0.453125 -0.828125 0.84375 -1.09375q0.390625 -0.265625 0.84375 -0.265625q0.671875 0 1.359375 0.421875l-0.453125 1.21875q-0.484375 -0.28125 -0.96875 -0.28125q-0.4375 0 -0.78125 0.265625q-0.34375 0.25 -0.484375 0.71875q-0.21875 0.703125 -0.21875 1.53125l0 4.078125l-1.328125 0zm4.3806458 -2.328125l1.296875 -0.203125q0.109375 0.78125 0.609375 1.203125q0.5 0.421875 1.40625 0.421875q0.90625 0 1.34375 -0.359375q0.4375 -0.375 0.4375 -0.875q0 -0.453125 -0.390625 -0.703125q-0.265625 -0.1875 -1.34375 -0.453125q-1.453125 -0.359375 -2.015625 -0.625q-0.546875 -0.28125 -0.84375 -0.75q-0.28125 -0.46875 -0.28125 -1.046875q0 -0.515625 0.234375 -0.953125q0.234375 -0.453125 0.640625 -0.734375q0.3125 -0.234375 0.84375 -0.390625q0.53125 -0.15625 1.140625 -0.15625q0.90625 0 1.59375 0.265625q0.703125 0.265625 1.03125 0.71875q0.328125 0.4375 0.453125 1.203125l-1.28125 0.171875q-0.09375 -0.609375 -0.515625 -0.9375q-0.421875 -0.34375 -1.1875 -0.34375q-0.90625 0 -1.296875 0.3125q-0.390625 0.296875 -0.390625 0.703125q0 0.25 0.15625 0.453125q0.171875 0.21875 0.515625 0.359375q0.1875 0.0625 1.15625 0.328125q1.40625 0.375 1.953125 0.609375q0.5625 0.234375 0.875 0.703125q0.3125 0.453125 0.3125 1.125q0 0.65625 -0.390625 1.234375q-0.375 0.578125 -1.109375 0.90625q-0.71875 0.3125 -1.640625 0.3125q-1.515625 0 -2.3125 -0.625q-0.78125 -0.625 -1.0 -1.875zm10.015625 2.328125l-2.96875 -7.78125l1.390625 0l1.671875 4.65625q0.265625 0.765625 0.5 1.578125q0.171875 -0.625 0.484375 -1.484375l1.734375 -4.75l1.359375 0l-2.953125 7.78125l-1.21875 0zm5.109375 3.0l-0.15625 -1.234375q0.4375 0.109375 0.75 0.109375q0.453125 0 0.703125 -0.15625q0.265625 -0.140625 0.4375 -0.40625q0.125 -0.1875 0.40625 -0.96875q0.03125 -0.109375 0.109375 -0.328125l-2.953125 -7.796875l1.421875 0l1.625 4.5q0.3125 0.859375 0.5625 1.8125q0.234375 -0.90625 0.546875 -1.78125l1.65625 -4.53125l1.328125 0l-2.96875 7.90625q-0.46875 1.28125 -0.734375 1.765625q-0.359375 0.65625 -0.8125 0.953125q-0.453125 0.3125 -1.078125 0.3125q-0.375 0 -0.84375 -0.15625z" fill-rule="nonzero"></path><path fill="#000000" fill-opacity="0.0" d="m236.33002 171.1704l0 17.38478l138.77164 0l0 17.386871" fill-rule="evenodd"></path><path stroke="#000000" stroke-width="1.0" stroke-linejoin="round" stroke-linecap="butt" d="m236.33002 171.1704l0 17.38478l138.77164 0l0 17.386871" fill-rule="evenodd"></path><path fill="#f9cb9c" d="m151.36827 279.35382l88.44095 0l0 38.64566l-88.44095 0z" fill-rule="evenodd"></path><path stroke="#000000" stroke-width="1.0" stroke-linejoin="round" stroke-linecap="butt" d="m151.36827 279.35382l88.44095 0l0 38.64566l-88.44095 0z" fill-rule="evenodd"></path><path fill="#000000" d="m184.463 303.75665l0 -10.734375l4.03125 0q1.234375 0 1.96875 0.328125q0.75 0.328125 1.171875 1.0q0.421875 0.671875 0.421875 1.421875q0 0.6875 -0.375 1.296875q-0.375 0.59375 -1.125 0.96875q0.96875 0.296875 1.484375 0.984375q0.53125 0.6875 0.53125 1.625q0 0.75 -0.328125 1.40625q-0.3125 0.640625 -0.78125 1.0q-0.46875 0.34375 -1.171875 0.53125q-0.703125 0.171875 -1.734375 0.171875l-4.09375 0zm1.421875 -6.21875l2.328125 0q0.9375 0 1.359375 -0.125q0.53125 -0.171875 0.796875 -0.546875q0.28125 -0.375 0.28125 -0.9375q0 -0.53125 -0.25 -0.9375q-0.25 -0.40625 -0.734375 -0.546875q-0.46875 -0.15625 -1.625 -0.15625l-2.15625 0l0 3.25zm0 4.953125l2.671875 0q0.6875 0 0.96875 -0.046875q0.5 -0.09375 0.828125 -0.296875q0.328125 -0.203125 0.53125 -0.59375q0.21875 -0.390625 0.21875 -0.90625q0 -0.609375 -0.3125 -1.046875q-0.296875 -0.4375 -0.84375 -0.609375q-0.546875 -0.1875 -1.578125 -0.1875l-2.484375 0l0 3.6875zm8.259979 -7.953125l0 -1.515625l1.3125 0l0 1.515625l-1.3125 0zm0 9.21875l0 -7.78125l1.3125 0l0 7.78125l-1.3125 0zm3.2092743 0l0 -10.734375l1.328125 0l0 10.734375l-1.328125 0zm8.334274 0l0 -0.984375q-0.734375 1.15625 -2.171875 1.15625q-0.921875 0 -1.703125 -0.5q-0.78125 -0.515625 -1.21875 -1.4375q-0.421875 -0.921875 -0.421875 -2.109375q0 -1.171875 0.390625 -2.109375q0.390625 -0.953125 1.15625 -1.453125q0.78125 -0.515625 1.734375 -0.515625q0.703125 0 1.25 0.296875q0.5625 0.296875 0.90625 0.765625l0 -3.84375l1.3125 0l0 10.734375l-1.234375 0zm-4.15625 -3.875q0 1.484375 0.625 2.234375q0.625 0.734375 1.484375 0.734375q0.859375 0 1.46875 -0.703125q0.609375 -0.71875 0.609375 -2.15625q0 -1.609375 -0.625 -2.34375q-0.609375 -0.75 -1.515625 -0.75q-0.875 0 -1.46875 0.71875q-0.578125 0.71875 -0.578125 2.265625z" fill-rule="nonzero"></path><path fill="#000000" fill-opacity="0.0" d="m195.82776 244.58464l0 17.384415l-0.25196838 0l0 17.387238" fill-rule="evenodd"></path><path stroke="#000000" stroke-width="1.0" stroke-linejoin="round" stroke-linecap="butt" d="m195.82776 244.58464l0 17.384415l-0.25196838 0l0 17.387238" fill-rule="evenodd"></path><path fill="#000000" fill-opacity="0.0" d="m236.33002 171.1704l0 17.389297l-167.49606 0l0 17.382355" fill-rule="evenodd"></path><path stroke="#000000" stroke-width="1.0" stroke-linejoin="round" stroke-linecap="butt" d="m236.33002 171.1704l0 17.389297l-167.49606 0l0 17.382355" fill-rule="evenodd"></path><path fill="#f9cb9c" d="m14.989114 205.94934l107.71654 0l0 38.64566l-107.71654 0z" fill-rule="evenodd"></path><path stroke="#000000" stroke-width="1.0" stroke-linejoin="round" stroke-linecap="butt" d="m14.989114 205.94934l107.71654 0l0 38.64566l-107.71654 0z" fill-rule="evenodd"></path><path fill="#000000" d="m56.891838 226.89905l1.34375 -0.109375q0.09375 0.796875 0.4375 1.3125q0.359375 0.515625 1.078125 0.84375q0.734375 0.3125 1.65625 0.3125q0.8125 0 1.4375 -0.234375q0.625 -0.25 0.921875 -0.671875q0.3125 -0.421875 0.3125 -0.921875q0 -0.5 -0.296875 -0.875q-0.296875 -0.375 -0.96875 -0.640625q-0.4375 -0.15625 -1.921875 -0.515625q-1.46875 -0.359375 -2.0625 -0.671875q-0.765625 -0.40625 -1.15625 -1.0q-0.375 -0.59375 -0.375 -1.34375q0 -0.8125 0.453125 -1.515625q0.46875 -0.703125 1.359375 -1.0625q0.890625 -0.375 1.96875 -0.375q1.203125 0 2.109375 0.390625q0.90625 0.375 1.390625 1.125q0.5 0.75 0.546875 1.6875l-1.375 0.109375q-0.109375 -1.015625 -0.75 -1.53125q-0.625 -0.53125 -1.859375 -0.53125q-1.28125 0 -1.875 0.484375q-0.59375 0.46875 -0.59375 1.125q0 0.578125 0.421875 0.953125q0.40625 0.375 2.140625 0.765625q1.734375 0.390625 2.375 0.6875q0.9375 0.4375 1.375 1.109375q0.453125 0.65625 0.453125 1.515625q0 0.859375 -0.5 1.625q-0.484375 0.75 -1.40625 1.171875q-0.90625 0.421875 -2.0625 0.421875q-1.453125 0 -2.4375 -0.421875q-0.984375 -0.4375 -1.546875 -1.28125q-0.5625 -0.859375 -0.59375 -1.9375zm9.603729 -0.4375q0 -2.15625 1.203125 -3.203125q1.0 -0.859375 2.4375 -0.859375q1.609375 0 2.625 1.046875q1.015625 1.046875 1.015625 2.90625q0 1.5 -0.453125 2.359375q-0.4375 0.859375 -1.3125 1.34375q-0.859375 0.46875 -1.875 0.46875q-1.625 0 -2.640625 -1.046875q-1.0 -1.046875 -1.0 -3.015625zm1.359375 0q0 1.5 0.640625 2.25q0.65625 0.734375 1.640625 0.734375q0.984375 0 1.640625 -0.75q0.65625 -0.75 0.65625 -2.28125q0 -1.4375 -0.65625 -2.171875q-0.65625 -0.75 -1.640625 -0.75q-0.984375 0 -1.640625 0.734375q-0.640625 0.734375 -0.640625 2.234375zm0.59375 -5.40625l0 -1.5l1.375 0l0 1.5l-1.375 0zm2.71875 0l0 -1.5l1.390625 0l0 1.5l-1.390625 0zm3.9792328 9.296875l0 -10.734375l1.3125 0l0 6.125l3.125 -3.171875l1.703125 0l-2.96875 2.890625l3.265625 4.890625l-1.625 0l-2.5625 -3.984375l-0.9375 0.90625l0 3.078125l-1.3125 0z" fill-rule="nonzero"></path><path fill="#000000" fill-opacity="0.0" d="m122.70565 225.27217l14.450905 0l0 0.06298828l14.462479 0" fill-rule="evenodd"></path><path stroke="#000000" stroke-width="1.0" stroke-linejoin="round" stroke-linecap="butt" d="m122.70565 225.27217l14.450905 0l0 0.06298828l14.462479 0" fill-rule="evenodd"></path><path fill="#ffe599" d="m166.9449 64.2231l138.77165 0l0 38.645668l-138.77165 0z" fill-rule="evenodd"></path><path stroke="#000000" stroke-width="1.0" stroke-linejoin="round" stroke-linecap="butt" d="m166.9449 64.2231l138.77165 0l0 38.645668l-138.77165 0z" fill-rule="evenodd"></path><path fill="#000000" d="m186.80865 88.62593l0 -10.734375l1.40625 0l0 10.734375l-1.40625 0zm3.6501007 0l0 -7.78125l1.1875 0l0 1.109375q0.859375 -1.28125 2.484375 -1.28125q0.703125 0 1.28125 0.25q0.59375 0.25 0.890625 0.671875q0.296875 0.40625 0.40625 0.96875q0.078125 0.359375 0.078125 1.28125l0 4.78125l-1.328125 0l0 -4.734375q0 -0.796875 -0.15625 -1.1875q-0.140625 -0.40625 -0.53125 -0.640625q-0.390625 -0.25 -0.921875 -0.25q-0.84375 0 -1.453125 0.53125q-0.609375 0.53125 -0.609375 2.03125l0 4.25l-1.328125 0zm8.119858 0l0 -10.734375l1.328125 0l0 10.734375l-1.328125 0zm2.8030243 -3.890625q0 -2.15625 1.203125 -3.203125q1.0 -0.859375 2.4375 -0.859375q1.609375 0 2.625 1.046875q1.015625 1.046875 1.015625 2.90625q0 1.5 -0.453125 2.359375q-0.4375 0.859375 -1.3125 1.34375q-0.859375 0.46875 -1.875 0.46875q-1.625 0 -2.640625 -1.046875q-1.0 -1.046875 -1.0 -3.015625zm1.359375 0q0 1.5 0.640625 2.25q0.65625 0.734375 1.640625 0.734375q0.984375 0 1.640625 -0.75q0.65625 -0.75 0.65625 -2.28125q0 -1.4375 -0.65625 -2.171875q-0.65625 -0.75 -1.640625 -0.75q-0.984375 0 -1.640625 0.734375q-0.640625 0.734375 -0.640625 2.234375zm7.041733 4.53125l1.28125 0.1875q0.078125 0.59375 0.4375 0.875q0.5 0.359375 1.34375 0.359375q0.921875 0 1.421875 -0.375q0.5 -0.359375 0.671875 -1.015625q0.09375 -0.40625 0.09375 -1.6875q-0.859375 1.015625 -2.15625 1.015625q-1.609375 0 -2.484375 -1.15625q-0.875 -1.15625 -0.875 -2.78125q0 -1.109375 0.40625 -2.046875q0.40625 -0.9375 1.15625 -1.453125q0.765625 -0.515625 1.8125 -0.515625q1.375 0 2.265625 1.109375l0 -0.9375l1.21875 0l0 6.71875q0 1.828125 -0.375 2.578125q-0.375 0.765625 -1.171875 1.203125q-0.796875 0.4375 -1.96875 0.4375q-1.390625 0 -2.25 -0.625q-0.859375 -0.625 -0.828125 -1.890625zm1.09375 -4.671875q0 1.53125 0.59375 2.234375q0.609375 0.703125 1.53125 0.703125q0.90625 0 1.515625 -0.6875q0.625 -0.703125 0.625 -2.203125q0 -1.421875 -0.640625 -2.140625q-0.625 -0.734375 -1.515625 -0.734375q-0.890625 0 -1.5 0.71875q-0.609375 0.703125 -0.609375 2.109375zm7.057358 4.671875l1.28125 0.1875q0.078125 0.59375 0.4375 0.875q0.5 0.359375 1.34375 0.359375q0.921875 0 1.421875 -0.375q0.5 -0.359375 0.671875 -1.015625q0.09375 -0.40625 0.09375 -1.6875q-0.859375 1.015625 -2.15625 1.015625q-1.609375 0 -2.484375 -1.15625q-0.875 -1.15625 -0.875 -2.78125q0 -1.109375 0.40625 -2.046875q0.40625 -0.9375 1.15625 -1.453125q0.765625 -0.515625 1.8125 -0.515625q1.375 0 2.265625 1.109375l0 -0.9375l1.21875 0l0 6.71875q0 1.828125 -0.375 2.578125q-0.375 0.765625 -1.171875 1.203125q-0.796875 0.4375 -1.96875 0.4375q-1.390625 0 -2.25 -0.625q-0.859375 -0.625 -0.828125 -1.890625zm1.09375 -4.671875q0 1.53125 0.59375 2.234375q0.609375 0.703125 1.53125 0.703125q0.90625 0 1.515625 -0.6875q0.625 -0.703125 0.625 -2.203125q0 -1.421875 -0.640625 -2.140625q-0.625 -0.734375 -1.515625 -0.734375q-0.890625 0 -1.5 0.71875q-0.609375 0.703125 -0.609375 2.109375zm7.291733 4.03125l0 -7.78125l1.1875 0l0 1.109375q0.859375 -1.28125 2.484375 -1.28125q0.703125 0 1.28125 0.25q0.59375 0.25 0.890625 0.671875q0.296875 0.40625 0.40625 0.96875q0.078125 0.359375 0.078125 1.28125l0 4.78125l-1.328125 0l0 -4.734375q0 -0.796875 -0.15625 -1.1875q-0.140625 -0.40625 -0.53125 -0.640625q-0.390625 -0.25 -0.921875 -0.25q-0.84375 0 -1.453125 0.53125q-0.609375 0.53125 -0.609375 2.03125l0 4.25l-1.328125 0zm8.166733 -9.21875l0 -1.515625l1.3125 0l0 1.515625l-1.3125 0zm0 9.21875l0 -7.78125l1.3125 0l0 7.78125l-1.3125 0zm3.2405243 0l0 -7.78125l1.1875 0l0 1.109375q0.859375 -1.28125 2.484375 -1.28125q0.703125 0 1.28125 0.25q0.59375 0.25 0.890625 0.671875q0.296875 0.40625 0.40625 0.96875q0.078125 0.359375 0.078125 1.28125l0 4.78125l-1.328125 0l0 -4.734375q0 -0.796875 -0.15625 -1.1875q-0.140625 -0.40625 -0.53125 -0.640625q-0.390625 -0.25 -0.921875 -0.25q-0.84375 0 -1.453125 0.53125q-0.609375 0.53125 -0.609375 2.03125l0 4.25l-1.328125 0zm7.916733 0.640625l1.28125 0.1875q0.078125 0.59375 0.4375 0.875q0.5 0.359375 1.34375 0.359375q0.921875 0 1.421875 -0.375q0.5 -0.359375 0.671875 -1.015625q0.09375 -0.40625 0.09375 -1.6875q-0.859375 1.015625 -2.15625 1.015625q-1.609375 0 -2.484375 -1.15625q-0.875 -1.15625 -0.875 -2.78125q0 -1.109375 0.40625 -2.046875q0.40625 -0.9375 1.15625 -1.453125q0.765625 -0.515625 1.8125 -0.515625q1.375 0 2.265625 1.109375l0 -0.9375l1.21875 0l0 6.71875q0 1.828125 -0.375 2.578125q-0.375 0.765625 -1.171875 1.203125q-0.796875 0.4375 -1.96875 0.4375q-1.390625 0 -2.25 -0.625q-0.859375 -0.625 -0.828125 -1.890625zm1.09375 -4.671875q0 1.53125 0.59375 2.234375q0.609375 0.703125 1.53125 0.703125q0.90625 0 1.515625 -0.6875q0.625 -0.703125 0.625 -2.203125q0 -1.421875 -0.640625 -2.140625q-0.625 -0.734375 -1.515625 -0.734375q-0.890625 0 -1.5 0.71875q-0.609375 0.703125 -0.609375 2.109375zm6.776108 1.703125l1.296875 -0.203125q0.109375 0.78125 0.609375 1.203125q0.5 0.421875 1.40625 0.421875q0.90625 0 1.34375 -0.359375q0.4375 -0.375 0.4375 -0.875q0 -0.453125 -0.390625 -0.703125q-0.265625 -0.1875 -1.34375 -0.453125q-1.453125 -0.359375 -2.015625 -0.625q-0.546875 -0.28125 -0.84375 -0.75q-0.28125 -0.46875 -0.28125 -1.046875q0 -0.515625 0.234375 -0.953125q0.234375 -0.453125 0.640625 -0.734375q0.3125 -0.234375 0.84375 -0.390625q0.53125 -0.15625 1.140625 -0.15625q0.90625 0 1.59375 0.265625q0.703125 0.265625 1.03125 0.71875q0.328125 0.4375 0.453125 1.203125l-1.28125 0.171875q-0.09375 -0.609375 -0.515625 -0.9375q-0.421875 -0.34375 -1.1875 -0.34375q-0.90625 0 -1.296875 0.3125q-0.390625 0.296875 -0.390625 0.703125q0 0.25 0.15625 0.453125q0.171875 0.21875 0.515625 0.359375q0.1875 0.0625 1.15625 0.328125q1.40625 0.375 1.953125 0.609375q0.5625 0.234375 0.875 0.703125q0.3125 0.453125 0.3125 1.125q0 0.65625 -0.390625 1.234375q-0.375 0.578125 -1.109375 0.90625q-0.71875 0.3125 -1.640625 0.3125q-1.515625 0 -2.3125 -0.625q-0.78125 -0.625 -1.0 -1.875zm7.328125 0l1.296875 -0.203125q0.109375 0.78125 0.609375 1.203125q0.5 0.421875 1.40625 0.421875q0.90625 0 1.34375 -0.359375q0.4375 -0.375 0.4375 -0.875q0 -0.453125 -0.390625 -0.703125q-0.265625 -0.1875 -1.34375 -0.453125q-1.453125 -0.359375 -2.015625 -0.625q-0.546875 -0.28125 -0.84375 -0.75q-0.28125 -0.46875 -0.28125 -1.046875q0 -0.515625 0.234375 -0.953125q0.234375 -0.453125 0.640625 -0.734375q0.3125 -0.234375 0.84375 -0.390625q0.53125 -0.15625 1.140625 -0.15625q0.90625 0 1.59375 0.265625q0.703125 0.265625 1.03125 0.71875q0.328125 0.4375 0.453125 1.203125l-1.28125 0.171875q-0.09375 -0.609375 -0.515625 -0.9375q-0.421875 -0.34375 -1.1875 -0.34375q-0.90625 0 -1.296875 0.3125q-0.390625 0.296875 -0.390625 0.703125q0 0.25 0.15625 0.453125q0.171875 0.21875 0.515625 0.359375q0.1875 0.0625 1.15625 0.328125q1.40625 0.375 1.953125 0.609375q0.5625 0.234375 0.875 0.703125q0.3125 0.453125 0.3125 1.125q0 0.65625 -0.390625 1.234375q-0.375 0.578125 -1.109375 0.90625q-0.71875 0.3125 -1.640625 0.3125q-1.515625 0 -2.3125 -0.625q-0.78125 -0.625 -1.0 -1.875zm7.859375 -6.890625l0 -1.515625l1.3125 0l0 1.515625l-1.3125 0zm0 9.21875l0 -7.78125l1.3125 0l0 7.78125l-1.3125 0zm8.287384 0l0 -0.984375q-0.734375 1.15625 -2.171875 1.15625q-0.921875 0 -1.703125 -0.5q-0.78125 -0.515625 -1.21875 -1.4375q-0.421875 -0.921875 -0.421875 -2.109375q0 -1.171875 0.390625 -2.109375q0.390625 -0.953125 1.15625 -1.453125q0.78125 -0.515625 1.734375 -0.515625q0.703125 0 1.25 0.296875q0.5625 0.296875 0.90625 0.765625l0 -3.84375l1.3125 0l0 10.734375l-1.234375 0zm-4.15625 -3.875q0 1.484375 0.625 2.234375q0.625 0.734375 1.484375 0.734375q0.859375 0 1.46875 -0.703125q0.609375 -0.71875 0.609375 -2.15625q0 -1.609375 -0.625 -2.34375q-0.609375 -0.75 -1.515625 -0.75q-0.875 0 -1.46875 0.71875q-0.578125 0.71875 -0.578125 2.265625zm12.338623 2.921875q-0.734375 0.609375 -1.40625 0.875q-0.671875 0.25 -1.453125 0.25q-1.28125 0 -1.96875 -0.625q-0.6875 -0.625 -0.6875 -1.59375q0 -0.578125 0.25 -1.046875q0.265625 -0.46875 0.6875 -0.75q0.421875 -0.296875 0.953125 -0.4375q0.375 -0.109375 1.171875 -0.203125q1.59375 -0.1875 2.34375 -0.453125q0.015625 -0.265625 0.015625 -0.34375q0 -0.8125 -0.375 -1.140625q-0.515625 -0.4375 -1.5 -0.4375q-0.9375 0 -1.390625 0.328125q-0.4375 0.3125 -0.640625 1.140625l-1.296875 -0.171875q0.171875 -0.828125 0.578125 -1.328125q0.40625 -0.515625 1.171875 -0.78125q0.765625 -0.28125 1.765625 -0.28125q1.0 0 1.609375 0.234375q0.625 0.234375 0.921875 0.59375q0.296875 0.34375 0.40625 0.890625q0.0625 0.34375 0.0625 1.21875l0 1.75q0 1.84375 0.078125 2.328125q0.09375 0.484375 0.34375 0.9375l-1.375 0q-0.203125 -0.40625 -0.265625 -0.953125zm-0.109375 -2.953125q-0.71875 0.296875 -2.15625 0.5q-0.8125 0.125 -1.15625 0.265625q-0.328125 0.140625 -0.515625 0.421875q-0.171875 0.28125 -0.171875 0.625q0 0.53125 0.390625 0.890625q0.40625 0.34375 1.171875 0.34375q0.765625 0 1.359375 -0.328125q0.59375 -0.34375 0.875 -0.921875q0.203125 -0.4375 0.203125 -1.3125l0 -0.484375z" fill-rule="nonzero"></path><path fill="#000000" fill-opacity="0.0" d="m236.33072 102.86877l0 14.828117l0.06300354 0l0 14.841171" fill-rule="evenodd"></path><path stroke="#000000" stroke-width="1.0" stroke-linejoin="round" stroke-linecap="butt" d="m236.33072 102.86877l0 14.828117l0.06300354 0l0 14.841171" fill-rule="evenodd"></path><path fill="#f9cb9c" d="m141.72972 391.41208l107.71654 0l0 38.64566l-107.71654 0z" fill-rule="evenodd"></path><path stroke="#000000" stroke-width="1.0" stroke-linejoin="round" stroke-linecap="butt" d="m141.72972 391.41208l107.71654 0l0 38.64566l-107.71654 0z" fill-rule="evenodd"></path><path fill="#000000" d="m159.30115 415.8149l0 -10.734375l7.765625 0l0 1.265625l-6.34375 0l0 3.28125l5.9375 0l0 1.265625l-5.9375 0l0 3.65625l6.59375 0l0 1.265625l-8.015625 0zm8.697479 0l2.84375 -4.046875l-2.625 -3.734375l1.640625 0l1.203125 1.828125q0.328125 0.515625 0.53125 0.875q0.328125 -0.484375 0.59375 -0.859375l1.3125 -1.84375l1.578125 0l-2.6875 3.671875l2.890625 4.109375l-1.625 0l-1.59375 -2.421875l-0.421875 -0.640625l-2.046875 3.0625l-1.59375 0zm8.203125 2.984375l0 -10.765625l1.203125 0l0 1.015625q0.421875 -0.59375 0.953125 -0.890625q0.546875 -0.296875 1.3125 -0.296875q0.984375 0 1.75 0.515625q0.765625 0.515625 1.140625 1.453125q0.390625 0.921875 0.390625 2.03125q0 1.203125 -0.421875 2.15625q-0.421875 0.953125 -1.25 1.46875q-0.8125 0.5 -1.71875 0.5q-0.65625 0 -1.1875 -0.265625q-0.515625 -0.28125 -0.84375 -0.71875l0 3.796875l-1.328125 0zm1.203125 -6.828125q0 1.5 0.609375 2.21875q0.609375 0.71875 1.46875 0.71875q0.875 0 1.5 -0.734375q0.625 -0.75 0.625 -2.3125q0 -1.484375 -0.609375 -2.21875q-0.609375 -0.75 -1.453125 -0.75q-0.84375 0 -1.5 0.796875q-0.640625 0.78125 -0.640625 2.28125zm6.463608 -0.046875q0 -2.15625 1.203125 -3.203125q1.0 -0.859375 2.4375 -0.859375q1.609375 0 2.625 1.046875q1.015625 1.046875 1.015625 2.90625q0 1.5 -0.453125 2.359375q-0.4375 0.859375 -1.3125 1.34375q-0.859375 0.46875 -1.875 0.46875q-1.625 0 -2.640625 -1.046875q-1.0 -1.046875 -1.0 -3.015625zm1.359375 0q0 1.5 0.640625 2.25q0.65625 0.734375 1.640625 0.734375q0.984375 0 1.640625 -0.75q0.65625 -0.75 0.65625 -2.28125q0 -1.4375 -0.65625 -2.171875q-0.65625 -0.75 -1.640625 -0.75q-0.984375 0 -1.640625 0.734375q-0.640625 0.734375 -0.640625 2.234375zm7.260483 3.890625l0 -7.78125l1.1875 0l0 1.1875q0.453125 -0.828125 0.84375 -1.09375q0.390625 -0.265625 0.84375 -0.265625q0.671875 0 1.359375 0.421875l-0.453125 1.21875q-0.484375 -0.28125 -0.96875 -0.28125q-0.4375 0 -0.78125 0.265625q-0.34375 0.25 -0.484375 0.71875q-0.21875 0.703125 -0.21875 1.53125l0 4.078125l-1.328125 0zm7.7868958 -1.171875l0.1875 1.15625q-0.5625 0.125 -1.0 0.125q-0.71875 0 -1.125 -0.234375q-0.390625 -0.234375 -0.546875 -0.59375q-0.15625 -0.375 -0.15625 -1.5625l0 -4.46875l-0.96875 0l0 -1.03125l0.96875 0l0 -1.921875l1.3125 -0.796875l0 2.71875l1.328125 0l0 1.03125l-1.328125 0l0 4.546875q0 0.5625 0.0625 0.734375q0.078125 0.15625 0.234375 0.25q0.15625 0.09375 0.4375 0.09375q0.234375 0 0.59375 -0.046875zm6.5094757 -1.328125l1.359375 0.15625q-0.3125 1.203125 -1.1875 1.859375q-0.875 0.65625 -2.234375 0.65625q-1.703125 0 -2.703125 -1.046875q-1.0 -1.046875 -1.0 -2.953125q0 -1.953125 1.015625 -3.03125q1.015625 -1.09375 2.625 -1.09375q1.5625 0 2.546875 1.0625q0.984375 1.0625 0.984375 2.984375q0 0.125 0 0.359375l-5.8125 0q0.078125 1.28125 0.71875 1.96875q0.65625 0.671875 1.640625 0.671875q0.71875 0 1.234375 -0.375q0.515625 -0.390625 0.8125 -1.21875zm-4.328125 -2.140625l4.34375 0q-0.09375 -0.984375 -0.5 -1.46875q-0.625 -0.765625 -1.625 -0.765625q-0.921875 0 -1.546875 0.609375q-0.609375 0.609375 -0.671875 1.625zm7.135483 4.640625l0 -7.78125l1.1875 0l0 1.1875q0.453125 -0.828125 0.84375 -1.09375q0.390625 -0.265625 0.84375 -0.265625q0.671875 0 1.359375 0.421875l-0.453125 1.21875q-0.484375 -0.28125 -0.96875 -0.28125q-0.4375 0 -0.78125 0.265625q-0.34375 0.25 -0.484375 0.71875q-0.21875 0.703125 -0.21875 1.53125l0 4.078125l-1.328125 0zm4.9118958 -9.21875l0 -1.515625l1.3125 0l0 1.515625l-1.3125 0zm0 9.21875l0 -7.78125l1.3125 0l0 7.78125l-1.3125 0zm3.2405243 0l0 -7.78125l1.1875 0l0 1.109375q0.859375 -1.28125 2.484375 -1.28125q0.703125 0 1.28125 0.25q0.59375 0.25 0.890625 0.671875q0.296875 0.40625 0.40625 0.96875q0.078125 0.359375 0.078125 1.28125l0 4.78125l-1.328125 0l0 -4.734375q0 -0.796875 -0.15625 -1.1875q-0.140625 -0.40625 -0.53125 -0.640625q-0.390625 -0.25 -0.921875 -0.25q-0.84375 0 -1.453125 0.53125q-0.609375 0.53125 -0.609375 2.03125l0 4.25l-1.328125 0zm7.916733 0.640625l1.28125 0.1875q0.078125 0.59375 0.4375 0.875q0.5 0.359375 1.34375 0.359375q0.921875 0 1.421875 -0.375q0.5 -0.359375 0.671875 -1.015625q0.09375 -0.40625 0.09375 -1.6875q-0.859375 1.015625 -2.15625 1.015625q-1.609375 0 -2.484375 -1.15625q-0.875 -1.15625 -0.875 -2.78125q0 -1.109375 0.40625 -2.046875q0.40625 -0.9375 1.15625 -1.453125q0.765625 -0.515625 1.8125 -0.515625q1.375 0 2.265625 1.109375l0 -0.9375l1.21875 0l0 6.71875q0 1.828125 -0.375 2.578125q-0.375 0.765625 -1.171875 1.203125q-0.796875 0.4375 -1.96875 0.4375q-1.390625 0 -2.25 -0.625q-0.859375 -0.625 -0.828125 -1.890625zm1.09375 -4.671875q0 1.53125 0.59375 2.234375q0.609375 0.703125 1.53125 0.703125q0.90625 0 1.515625 -0.6875q0.625 -0.703125 0.625 -2.203125q0 -1.421875 -0.640625 -2.140625q-0.625 -0.734375 -1.515625 -0.734375q-0.890625 0 -1.5 0.71875q-0.609375 0.703125 -0.609375 2.109375z" fill-rule="nonzero"></path><path fill="#000000" fill-opacity="0.0" d="m195.58875 317.99948l0 36.706482l0.06298828 0l0 36.710846" fill-rule="evenodd"></path><path stroke="#000000" stroke-width="1.0" stroke-linejoin="round" stroke-linecap="butt" d="m195.58875 317.99948l0 36.706482l0.06298828 0l0 36.710846" fill-rule="evenodd"></path><path fill="#000000" fill-opacity="0.0" d="m240.04823 225.2618l34.398026 0l0 185.48033l-25.012207 0" fill-rule="evenodd"></path><path stroke="#000000" stroke-width="1.0" stroke-linejoin="round" stroke-linecap="butt" d="m240.04823 225.2618l34.398026 0l0 185.48033l-25.012207 0" fill-rule="evenodd"></path><path fill="#f9cb9c" d="m342.8063 279.35446l107.71655 0l0 38.64569l-107.71655 0z" fill-rule="evenodd"></path><path stroke="#000000" stroke-width="1.0" stroke-linejoin="round" stroke-linecap="butt" d="m342.8063 279.35446l107.71655 0l0 38.64569l-107.71655 0z" fill-rule="evenodd"></path><path fill="#000000" d="m360.0856 299.53857l0 -1.25l4.546875 -0.015625l0 3.984375q-1.046875 0.84375 -2.171875 1.265625q-1.109375 0.421875 -2.28125 0.421875q-1.578125 0 -2.875 -0.671875q-1.296875 -0.6875 -1.953125 -1.96875q-0.65625 -1.28125 -0.65625 -2.859375q0 -1.578125 0.65625 -2.9375q0.65625 -1.359375 1.890625 -2.015625q1.234375 -0.65625 2.828125 -0.65625q1.171875 0 2.109375 0.375q0.9375 0.375 1.46875 1.0625q0.546875 0.671875 0.8125 1.75l-1.28125 0.34375q-0.234375 -0.8125 -0.59375 -1.28125q-0.359375 -0.46875 -1.03125 -0.75q-0.65625 -0.28125 -1.46875 -0.28125q-0.984375 0 -1.703125 0.296875q-0.703125 0.296875 -1.140625 0.78125q-0.421875 0.484375 -0.671875 1.0625q-0.40625 1.0 -0.40625 2.15625q0 1.4375 0.484375 2.40625q0.5 0.96875 1.4375 1.4375q0.953125 0.46875 2.015625 0.46875q0.921875 0 1.796875 -0.359375q0.890625 -0.359375 1.34375 -0.765625l0 -2.0l-3.15625 0zm5.7125854 0.328125q0 -2.15625 1.203125 -3.203125q1.0 -0.859375 2.4375 -0.859375q1.609375 0 2.625 1.046875q1.015625 1.046875 1.015625 2.90625q0 1.5 -0.453125 2.359375q-0.4375 0.859375 -1.3125 1.34375q-0.859375 0.46875 -1.875 0.46875q-1.625 0 -2.640625 -1.046875q-1.0 -1.046875 -1.0 -3.015625zm1.359375 0q0 1.5 0.640625 2.25q0.65625 0.734375 1.640625 0.734375q0.984375 0 1.640625 -0.75q0.65625 -0.75 0.65625 -2.28125q0 -1.4375 -0.65625 -2.171875q-0.65625 -0.75 -1.640625 -0.75q-0.984375 0 -1.640625 0.734375q-0.640625 0.734375 -0.640625 2.234375zm6.791748 0q0 -2.15625 1.203125 -3.203125q1.0 -0.859375 2.4375 -0.859375q1.609375 0 2.625 1.046875q1.015625 1.046875 1.015625 2.90625q0 1.5 -0.453125 2.359375q-0.4375 0.859375 -1.3125 1.34375q-0.859375 0.46875 -1.875 0.46875q-1.625 0 -2.640625 -1.046875q-1.0 -1.046875 -1.0 -3.015625zm1.359375 0q0 1.5 0.640625 2.25q0.65625 0.734375 1.640625 0.734375q0.984375 0 1.640625 -0.75q0.65625 -0.75 0.65625 -2.28125q0 -1.4375 -0.65625 -2.171875q-0.65625 -0.75 -1.640625 -0.75q-0.984375 0 -1.640625 0.734375q-0.640625 0.734375 -0.640625 2.234375zm7.0417175 4.53125l1.28125 0.1875q0.078125 0.59375 0.4375 0.875q0.5 0.359375 1.34375 0.359375q0.921875 0 1.421875 -0.375q0.5 -0.359375 0.671875 -1.015625q0.09375 -0.40625 0.09375 -1.6875q-0.859375 1.015625 -2.15625 1.015625q-1.609375 0 -2.484375 -1.15625q-0.875 -1.15625 -0.875 -2.78125q0 -1.109375 0.40625 -2.046875q0.40625 -0.9375 1.15625 -1.453125q0.765625 -0.515625 1.8125 -0.515625q1.375 0 2.265625 1.109375l0 -0.9375l1.21875 0l0 6.71875q0 1.828125 -0.375 2.578125q-0.375 0.765625 -1.171875 1.203125q-0.796875 0.4375 -1.96875 0.4375q-1.390625 0 -2.25 -0.625q-0.859375 -0.625 -0.828125 -1.890625zm1.09375 -4.671875q0 1.53125 0.59375 2.234375q0.609375 0.703125 1.53125 0.703125q0.90625 0 1.515625 -0.6875q0.625 -0.703125 0.625 -2.203125q0 -1.421875 -0.640625 -2.140625q-0.625 -0.734375 -1.515625 -0.734375q-0.890625 0 -1.5 0.71875q-0.609375 0.703125 -0.609375 2.109375zm7.260498 4.03125l0 -10.734375l1.328125 0l0 10.734375l-1.328125 0zm8.615509 -2.5l1.359375 0.15625q-0.3125 1.203125 -1.1875 1.859375q-0.875 0.65625 -2.234375 0.65625q-1.703125 0 -2.703125 -1.046875q-1.0 -1.046875 -1.0 -2.953125q0 -1.953125 1.015625 -3.03125q1.015625 -1.09375 2.625 -1.09375q1.5625 0 2.546875 1.0625q0.984375 1.0625 0.984375 2.984375q0 0.125 0 0.359375l-5.8125 0q0.078125 1.28125 0.71875 1.96875q0.65625 0.671875 1.640625 0.671875q0.71875 0 1.234375 -0.375q0.515625 -0.390625 0.8125 -1.21875zm-4.328125 -2.140625l4.34375 0q-0.09375 -0.984375 -0.5 -1.46875q-0.625 -0.765625 -1.625 -0.765625q-0.921875 0 -1.546875 0.609375q-0.609375 0.609375 -0.671875 1.625zm11.3949585 4.640625l0 -10.734375l3.703125 0q1.25 0 1.90625 0.15625q0.921875 0.203125 1.578125 0.765625q0.84375 0.71875 1.265625 1.84375q0.421875 1.109375 0.421875 2.546875q0 1.21875 -0.28125 2.171875q-0.28125 0.9375 -0.734375 1.5625q-0.453125 0.609375 -0.984375 0.96875q-0.53125 0.359375 -1.28125 0.546875q-0.75 0.171875 -1.71875 0.171875l-3.875 0zm1.421875 -1.265625l2.296875 0q1.0625 0 1.65625 -0.1875q0.609375 -0.203125 0.96875 -0.5625q0.5 -0.515625 0.78125 -1.359375q0.28125 -0.859375 0.28125 -2.078125q0 -1.6875 -0.546875 -2.578125q-0.546875 -0.90625 -1.34375 -1.21875q-0.578125 -0.21875 -1.84375 -0.21875l-2.25 0l0 8.203125zm8.974915 1.265625l0 -7.78125l1.1875 0l0 1.1875q0.453125 -0.828125 0.84375 -1.09375q0.390625 -0.265625 0.84375 -0.265625q0.671875 0 1.359375 0.421875l-0.453125 1.21875q-0.484375 -0.28125 -0.96875 -0.28125q-0.4375 0 -0.78125 0.265625q-0.34375 0.25 -0.484375 0.71875q-0.21875 0.703125 -0.21875 1.53125l0 4.078125l-1.328125 0zm4.9118958 -9.21875l0 -1.515625l1.3125 0l0 1.515625l-1.3125 0zm0 9.21875l0 -7.78125l1.3125 0l0 7.78125l-1.3125 0zm5.412384 0l-2.96875 -7.78125l1.390625 0l1.671875 4.65625q0.265625 0.765625 0.5 1.578125q0.171875 -0.625 0.484375 -1.484375l1.734375 -4.75l1.359375 0l-2.953125 7.78125l-1.21875 0zm10.484375 -2.5l1.359375 0.15625q-0.3125 1.203125 -1.1875 1.859375q-0.875 0.65625 -2.234375 0.65625q-1.703125 0 -2.703125 -1.046875q-1.0 -1.046875 -1.0 -2.953125q0 -1.953125 1.015625 -3.03125q1.015625 -1.09375 2.625 -1.09375q1.5625 0 2.546875 1.0625q0.984375 1.0625 0.984375 2.984375q0 0.125 0 0.359375l-5.8125 0q0.078125 1.28125 0.71875 1.96875q0.65625 0.671875 1.640625 0.671875q0.71875 0 1.234375 -0.375q0.515625 -0.390625 0.8125 -1.21875zm-4.328125 -2.140625l4.34375 0q-0.09375 -0.984375 -0.5 -1.46875q-0.625 -0.765625 -1.625 -0.765625q-0.921875 0 -1.546875 0.609375q-0.609375 0.609375 -0.671875 1.625z" fill-rule="nonzero"></path><path fill="#000000" fill-opacity="0.0" d="m240.04823 225.2618l51.378616 0l0 73.41731l51.393036 0" fill-rule="evenodd"></path><path stroke="#000000" stroke-width="1.0" stroke-linejoin="round" stroke-linecap="butt" stroke-dasharray="4.0,3.0" d="m240.04823 225.2618l51.378616 0l0 73.41731l51.393036 0" fill-rule="evenodd"></path><path fill="#000000" fill-opacity="0.0" d="m239.80922 298.67667l51.498123 0l0 0.06298828l51.493988 0" fill-rule="evenodd"></path><path stroke="#000000" stroke-width="1.0" stroke-linejoin="round" stroke-linecap="butt" stroke-dasharray="4.0,3.0" d="m239.80922 298.67667l51.498123 0l0 0.06298828l51.493988 0" fill-rule="evenodd"></path><path fill="#ea9999" d="m421.24408 139.7664l117.51184 0l0 44.12599l-117.51184 0z" fill-rule="evenodd"></path><path stroke="#000000" stroke-width="1.0" stroke-linejoin="round" stroke-linecap="butt" d="m421.24408 139.7664l117.51184 0l0 44.12599l-117.51184 0z" fill-rule="evenodd"></path><path fill="#000000" d="m436.81714 166.9094l4.125 -10.734375l1.515625 0l4.40625 10.734375l-1.625 0l-1.25 -3.25l-4.484375 0l-1.1875 3.25l-1.5 0zm3.09375 -4.40625l3.640625 0l-1.125 -2.984375q-0.515625 -1.34375 -0.765625 -2.21875q-0.203125 1.03125 -0.578125 2.046875l-1.171875 3.15625zm12.728729 4.40625l0 -0.984375q-0.734375 1.15625 -2.171875 1.15625q-0.921875 0 -1.703125 -0.5q-0.78125 -0.515625 -1.21875 -1.4375q-0.421875 -0.921875 -0.421875 -2.109375q0 -1.171875 0.390625 -2.109375q0.390625 -0.953125 1.15625 -1.453125q0.78125 -0.515625 1.734375 -0.515625q0.703125 0 1.25 0.296875q0.5625 0.296875 0.90625 0.765625l0 -3.84375l1.3125 0l0 10.734375l-1.234375 0zm-4.15625 -3.875q0 1.484375 0.625 2.234375q0.625 0.734375 1.484375 0.734375q0.859375 0 1.46875 -0.703125q0.609375 -0.71875 0.609375 -2.15625q0 -1.609375 -0.625 -2.34375q-0.609375 -0.75 -1.515625 -0.75q-0.875 0 -1.46875 0.71875q-0.578125 0.71875 -0.578125 2.265625zm7.2604675 3.875l0 -7.78125l1.1875 0l0 1.09375q0.359375 -0.578125 0.96875 -0.921875q0.609375 -0.34375 1.390625 -0.34375q0.859375 0 1.40625 0.359375q0.5625 0.359375 0.78125 1.0q0.921875 -1.359375 2.40625 -1.359375q1.15625 0 1.78125 0.640625q0.625 0.640625 0.625 1.96875l0 5.34375l-1.3125 0l0 -4.90625q0 -0.78125 -0.125 -1.125q-0.125 -0.359375 -0.46875 -0.5625q-0.34375 -0.21875 -0.796875 -0.21875q-0.8125 0 -1.359375 0.546875q-0.546875 0.546875 -0.546875 1.75l0 4.515625l-1.3125 0l0 -5.046875q0 -0.890625 -0.328125 -1.328125q-0.3125 -0.4375 -1.046875 -0.4375q-0.5625 0 -1.03125 0.296875q-0.46875 0.296875 -0.6875 0.859375q-0.203125 0.5625 -0.203125 1.625l0 4.03125l-1.328125 0zm12.224396 -9.21875l0 -1.515625l1.3125 0l0 1.515625l-1.3125 0zm0 9.21875l0 -7.78125l1.3125 0l0 7.78125l-1.3125 0zm3.2405396 0l0 -7.78125l1.1875 0l0 1.109375q0.859375 -1.28125 2.484375 -1.28125q0.703125 0 1.28125 0.25q0.59375 0.25 0.890625 0.671875q0.296875 0.40625 0.40625 0.96875q0.078125 0.359375 0.078125 1.28125l0 4.78125l-1.328125 0l0 -4.734375q0 -0.796875 -0.15625 -1.1875q-0.140625 -0.40625 -0.53125 -0.640625q-0.390625 -0.25 -0.921875 -0.25q-0.84375 0 -1.453125 0.53125q-0.609375 0.53125 -0.609375 2.03125l0 4.25l-1.328125 0zm8.166718 -9.21875l0 -1.515625l1.3125 0l0 1.515625l-1.3125 0zm0 9.21875l0 -7.78125l1.3125 0l0 7.78125l-1.3125 0zm2.7249146 -2.328125l1.296875 -0.203125q0.109375 0.78125 0.609375 1.203125q0.5 0.421875 1.40625 0.421875q0.90625 0 1.34375 -0.359375q0.4375 -0.375 0.4375 -0.875q0 -0.453125 -0.390625 -0.703125q-0.265625 -0.1875 -1.34375 -0.453125q-1.453125 -0.359375 -2.015625 -0.625q-0.546875 -0.28125 -0.84375 -0.75q-0.28125 -0.46875 -0.28125 -1.046875q0 -0.515625 0.234375 -0.953125q0.234375 -0.453125 0.640625 -0.734375q0.3125 -0.234375 0.84375 -0.390625q0.53125 -0.15625 1.140625 -0.15625q0.90625 0 1.59375 0.265625q0.703125 0.265625 1.03125 0.71875q0.328125 0.4375 0.453125 1.203125l-1.28125 0.171875q-0.09375 -0.609375 -0.515625 -0.9375q-0.421875 -0.34375 -1.1875 -0.34375q-0.90625 0 -1.296875 0.3125q-0.390625 0.296875 -0.390625 0.703125q0 0.25 0.15625 0.453125q0.171875 0.21875 0.515625 0.359375q0.1875 0.0625 1.15625 0.328125q1.40625 0.375 1.953125 0.609375q0.5625 0.234375 0.875 0.703125q0.3125 0.453125 0.3125 1.125q0 0.65625 -0.390625 1.234375q-0.375 0.578125 -1.109375 0.90625q-0.71875 0.3125 -1.640625 0.3125q-1.515625 0 -2.3125 -0.625q-0.78125 -0.625 -1.0 -1.875zm10.734375 1.15625l0.1875 1.15625q-0.5625 0.125 -1.0 0.125q-0.71875 0 -1.125 -0.234375q-0.390625 -0.234375 -0.546875 -0.59375q-0.15625 -0.375 -0.15625 -1.5625l0 -4.46875l-0.96875 0l0 -1.03125l0.96875 0l0 -1.921875l1.3125 -0.796875l0 2.71875l1.328125 0l0 1.03125l-1.328125 0l0 4.546875q0 0.5625 0.0625 0.734375q0.078125 0.15625 0.234375 0.25q0.15625 0.09375 0.4375 0.09375q0.234375 0 0.59375 -0.046875zm1.1657104 1.171875l0 -7.78125l1.1875 0l0 1.1875q0.453125 -0.828125 0.84375 -1.09375q0.390625 -0.265625 0.84375 -0.265625q0.671875 0 1.359375 0.421875l-0.453125 1.21875q-0.484375 -0.28125 -0.96875 -0.28125q-0.4375 0 -0.78125 0.265625q-0.34375 0.25 -0.484375 0.71875q-0.21875 0.703125 -0.21875 1.53125l0 4.078125l-1.328125 0zm9.974396 -0.953125q-0.734375 0.609375 -1.40625 0.875q-0.671875 0.25 -1.453125 0.25q-1.28125 0 -1.96875 -0.625q-0.6875 -0.625 -0.6875 -1.59375q0 -0.578125 0.25 -1.046875q0.265625 -0.46875 0.6875 -0.75q0.421875 -0.296875 0.953125 -0.4375q0.375 -0.109375 1.171875 -0.203125q1.59375 -0.1875 2.34375 -0.453125q0.015625 -0.265625 0.015625 -0.34375q0 -0.8125 -0.375 -1.140625q-0.515625 -0.4375 -1.5 -0.4375q-0.9375 0 -1.390625 0.328125q-0.4375 0.3125 -0.640625 1.140625l-1.296875 -0.171875q0.171875 -0.828125 0.578125 -1.328125q0.40625 -0.515625 1.171875 -0.78125q0.765625 -0.28125 1.765625 -0.28125q1.0 0 1.609375 0.234375q0.625 0.234375 0.921875 0.59375q0.296875 0.34375 0.40625 0.890625q0.0625 0.34375 0.0625 1.21875l0 1.75q0 1.84375 0.078125 2.328125q0.09375 0.484375 0.34375 0.9375l-1.375 0q-0.203125 -0.40625 -0.265625 -0.953125zm-0.109375 -2.953125q-0.71875 0.296875 -2.15625 0.5q-0.8125 0.125 -1.15625 0.265625q-0.328125 0.140625 -0.515625 0.421875q-0.171875 0.28125 -0.171875 0.625q0 0.53125 0.390625 0.890625q0.40625 0.34375 1.171875 0.34375q0.765625 0 1.359375 -0.328125q0.59375 -0.34375 0.875 -0.921875q0.203125 -0.4375 0.203125 -1.3125l0 -0.484375zm6.072998 2.734375l0.1875 1.15625q-0.5625 0.125 -1.0 0.125q-0.71875 0 -1.125 -0.234375q-0.390625 -0.234375 -0.546875 -0.59375q-0.15625 -0.375 -0.15625 -1.5625l0 -4.46875l-0.96875 0l0 -1.03125l0.96875 0l0 -1.921875l1.3125 -0.796875l0 2.71875l1.328125 0l0 1.03125l-1.328125 0l0 4.546875q0 0.5625 0.0625 0.734375q0.078125 0.15625 0.234375 0.25q0.15625 0.09375 0.4375 0.09375q0.234375 0 0.59375 -0.046875zm0.69696045 -2.71875q0 -2.15625 1.203125 -3.203125q1.0000305 -0.859375 2.4375305 -0.859375q1.609375 0 2.625 1.046875q1.015625 1.046875 1.015625 2.90625q0 1.5 -0.453125 2.359375q-0.4375 0.859375 -1.3125 1.34375q-0.859375 0.46875 -1.875 0.46875q-1.625 0 -2.6406555 -1.046875q-1.0 -1.046875 -1.0 -3.015625zm1.359375 0q0 1.5 0.6406555 2.25q0.65625 0.734375 1.640625 0.734375q0.984375 0 1.640625 -0.75q0.65625 -0.75 0.65625 -2.28125q0 -1.4375 -0.65625 -2.171875q-0.65625 -0.75 -1.640625 -0.75q-0.984375 0 -1.640625 0.734375q-0.6406555 0.734375 -0.6406555 2.234375zm0.5937805 -5.40625l0 -1.5l1.375 0l0 1.5l-1.375 0zm2.71875 0l0 -1.5l1.390625 0l0 1.5l-1.390625 0zm3.947937 9.296875l0 -7.78125l1.1875 0l0 1.1875q0.453125 -0.828125 0.84375 -1.09375q0.390625 -0.265625 0.84375 -0.265625q0.671875 0 1.359375 0.421875l-0.453125 1.21875q-0.484375 -0.28125 -0.96875 -0.28125q-0.4375 0 -0.78125 0.265625q-0.34375 0.25 -0.484375 0.71875q-0.21875 0.703125 -0.21875 1.53125l0 4.078125l-1.328125 0z" fill-rule="nonzero"></path><path fill="#ffe599" d="m421.24408 51.514435l117.51184 0l0 44.125984l-117.51184 0z" fill-rule="evenodd"></path><path stroke="#000000" stroke-width="1.0" stroke-linejoin="round" stroke-linecap="butt" d="m421.24408 51.514435l117.51184 0l0 44.125984l-117.51184 0z" fill-rule="evenodd"></path><path fill="#000000" d="m461.1971 78.657425l0 -10.734375l4.046875 0q1.078125 0 1.640625 0.09375q0.78125 0.140625 1.3125 0.515625q0.546875 0.359375 0.875 1.03125q0.328125 0.65625 0.328125 1.46875q0 1.359375 -0.875 2.3125q-0.875 0.953125 -3.15625 0.953125l-2.75 0l0 4.359375l-1.421875 0zm1.421875 -5.625l2.78125 0q1.375 0 1.953125 -0.515625q0.578125 -0.515625 0.578125 -1.453125q0 -0.671875 -0.34375 -1.140625q-0.34375 -0.484375 -0.890625 -0.640625q-0.359375 -0.09375 -1.328125 -0.09375l-2.75 0l0 3.84375zm13.291229 5.625l0 -1.140625q-0.921875 1.3125 -2.46875 1.3125q-0.6875 0 -1.296875 -0.265625q-0.59375 -0.265625 -0.890625 -0.65625q-0.28125 -0.40625 -0.390625 -0.984375q-0.09375 -0.375 -0.09375 -1.21875l0 -4.828125l1.328125 0l0 4.3125q0 1.03125 0.078125 1.390625q0.125 0.53125 0.515625 0.828125q0.40625 0.296875 1.0 0.296875q0.59375 0 1.109375 -0.296875q0.53125 -0.3125 0.75 -0.828125q0.21875 -0.53125 0.21875 -1.53125l0 -4.171875l1.3125 0l0 7.78125l-1.171875 0zm4.260498 0l-1.21875 0l0 -10.734375l1.3125 0l0 3.828125q0.84375 -1.046875 2.140625 -1.046875q0.71875 0 1.359375 0.296875q0.640625 0.28125 1.046875 0.8125q0.421875 0.515625 0.65625 1.265625q0.234375 0.734375 0.234375 1.578125q0 2.0 -1.0 3.09375q-0.984375 1.078125 -2.375 1.078125q-1.375 0 -2.15625 -1.140625l0 0.96875zm-0.015625 -3.953125q0 1.40625 0.390625 2.03125q0.609375 1.015625 1.671875 1.015625q0.875 0 1.5 -0.75q0.625 -0.75 0.625 -2.234375q0 -1.53125 -0.609375 -2.25q-0.59375 -0.734375 -1.453125 -0.734375q-0.859375 0 -1.5 0.75q-0.625 0.75 -0.625 2.171875zm6.9167175 3.953125l0 -10.734375l1.328125 0l0 10.734375l-1.328125 0zm3.3030396 -9.21875l0 -1.515625l1.3125 0l0 1.515625l-1.3125 0zm0 9.21875l0 -7.78125l1.3125 0l0 7.78125l-1.3125 0zm3.256134 0l0 -10.734375l1.3125 0l0 6.125l3.125 -3.171875l1.703125 0l-2.96875 2.890625l3.265625 4.890625l-1.625 0l-2.5625 -3.984375l-0.9375 0.90625l0 3.078125l-1.3125 0z" fill-rule="nonzero"></path><path fill="#f9cb9c" d="m421.24408 95.64042l117.51184 0l0 44.125984l-117.51184 0z" fill-rule="evenodd"></path><path stroke="#000000" stroke-width="1.0" stroke-linejoin="round" stroke-linecap="butt" d="m421.24408 95.64042l117.51184 0l0 44.125984l-117.51184 0z" fill-rule="evenodd"></path><path fill="#000000" d="m453.28885 122.78341l0 -10.734375l1.40625 0l0 10.734375l-1.40625 0zm3.650116 0l0 -7.78125l1.1875 0l0 1.109375q0.859375 -1.28125 2.484375 -1.28125q0.703125 0 1.28125 0.25q0.59375 0.25 0.890625 0.671875q0.296875 0.40625 0.40625 0.96875q0.078125 0.359375 0.078125 1.28125l0 4.78125l-1.328125 0l0 -4.734375q0 -0.796875 -0.15625 -1.1875q-0.140625 -0.40625 -0.53125 -0.640625q-0.390625 -0.25 -0.921875 -0.25q-0.84375 0 -1.453125 0.53125q-0.609375 0.53125 -0.609375 2.03125l0 4.25l-1.328125 0zm8.119843 0l0 -10.734375l1.328125 0l0 10.734375l-1.328125 0zm2.8030396 -3.890625q0 -2.15625 1.203125 -3.203125q1.0 -0.859375 2.4375 -0.859375q1.609375 0 2.625 1.046875q1.015625 1.046875 1.015625 2.90625q0 1.5 -0.453125 2.359375q-0.4375 0.859375 -1.3125 1.34375q-0.859375 0.46875 -1.875 0.46875q-1.625 0 -2.640625 -1.046875q-1.0 -1.046875 -1.0 -3.015625zm1.359375 0q0 1.5 0.640625 2.25q0.65625 0.734375 1.640625 0.734375q0.984375 0 1.640625 -0.75q0.65625 -0.75 0.65625 -2.28125q0 -1.4375 -0.65625 -2.171875q-0.65625 -0.75 -1.640625 -0.75q-0.984375 0 -1.640625 0.734375q-0.640625 0.734375 -0.640625 2.234375zm7.0417175 4.53125l1.28125 0.1875q0.078125 0.59375 0.4375 0.875q0.5 0.359375 1.34375 0.359375q0.921875 0 1.421875 -0.375q0.5 -0.359375 0.671875 -1.015625q0.09375 -0.40625 0.09375 -1.6875q-0.859375 1.015625 -2.15625 1.015625q-1.609375 0 -2.484375 -1.15625q-0.875 -1.15625 -0.875 -2.78125q0 -1.109375 0.40625 -2.046875q0.40625 -0.9375 1.15625 -1.453125q0.765625 -0.515625 1.8125 -0.515625q1.375 0 2.265625 1.109375l0 -0.9375l1.21875 0l0 6.71875q0 1.828125 -0.375 2.578125q-0.375 0.765625 -1.171875 1.203125q-0.796875 0.4375 -1.96875 0.4375q-1.390625 0 -2.25 -0.625q-0.859375 -0.625 -0.828125 -1.890625zm1.09375 -4.671875q0 1.53125 0.59375 2.234375q0.609375 0.703125 1.53125 0.703125q0.90625 0 1.515625 -0.6875q0.625 -0.703125 0.625 -2.203125q0 -1.421875 -0.640625 -2.140625q-0.625 -0.734375 -1.515625 -0.734375q-0.890625 0 -1.5 0.71875q-0.609375 0.703125 -0.609375 2.109375zm7.057373 4.671875l1.28125 0.1875q0.078125 0.59375 0.4375 0.875q0.5 0.359375 1.34375 0.359375q0.921875 0 1.421875 -0.375q0.5 -0.359375 0.671875 -1.015625q0.09375 -0.40625 0.09375 -1.6875q-0.859375 1.015625 -2.15625 1.015625q-1.609375 0 -2.484375 -1.15625q-0.875 -1.15625 -0.875 -2.78125q0 -1.109375 0.40625 -2.046875q0.40625 -0.9375 1.15625 -1.453125q0.765625 -0.515625 1.8125 -0.515625q1.375 0 2.265625 1.109375l0 -0.9375l1.21875 0l0 6.71875q0 1.828125 -0.375 2.578125q-0.375 0.765625 -1.171875 1.203125q-0.796875 0.4375 -1.96875 0.4375q-1.390625 0 -2.25 -0.625q-0.859375 -0.625 -0.828125 -1.890625zm1.09375 -4.671875q0 1.53125 0.59375 2.234375q0.609375 0.703125 1.53125 0.703125q0.90625 0 1.515625 -0.6875q0.625 -0.703125 0.625 -2.203125q0 -1.421875 -0.640625 -2.140625q-0.625 -0.734375 -1.515625 -0.734375q-0.890625 0 -1.5 0.71875q-0.609375 0.703125 -0.609375 2.109375zm12.369843 3.078125q-0.734375 0.609375 -1.40625 0.875q-0.671875 0.25 -1.453125 0.25q-1.28125 0 -1.96875 -0.625q-0.6875 -0.625 -0.6875 -1.59375q0 -0.578125 0.25 -1.046875q0.265625 -0.46875 0.6875 -0.75q0.421875 -0.296875 0.953125 -0.4375q0.375 -0.109375 1.171875 -0.203125q1.59375 -0.1875 2.34375 -0.453125q0.015625 -0.265625 0.015625 -0.34375q0 -0.8125 -0.375 -1.140625q-0.515625 -0.4375 -1.5 -0.4375q-0.9375 0 -1.390625 0.328125q-0.4375 0.3125 -0.640625 1.140625l-1.296875 -0.171875q0.171875 -0.828125 0.578125 -1.328125q0.40625 -0.515625 1.171875 -0.78125q0.765625 -0.28125 1.765625 -0.28125q1.0 0 1.609375 0.234375q0.625 0.234375 0.921875 0.59375q0.296875 0.34375 0.40625 0.890625q0.0625 0.34375 0.0625 1.21875l0 1.75q0 1.84375 0.078125 2.328125q0.09375 0.484375 0.34375 0.9375l-1.375 0q-0.203125 -0.40625 -0.265625 -0.953125zm-0.109375 -2.953125q-0.71875 0.296875 -2.15625 0.5q-0.8125 0.125 -1.15625 0.265625q-0.328125 0.140625 -0.515625 0.421875q-0.171875 0.28125 -0.171875 0.625q0 0.53125 0.390625 0.890625q0.40625 0.34375 1.171875 0.34375q0.765625 0 1.359375 -0.328125q0.59375 -0.34375 0.875 -0.921875q0.203125 -0.4375 0.203125 -1.3125l0 -0.484375zm8.229248 3.90625l0 -0.984375q-0.734375 1.15625 -2.171875 1.15625q-0.921875 0 -1.703125 -0.5q-0.78125 -0.515625 -1.21875 -1.4375q-0.421875 -0.921875 -0.421875 -2.109375q0 -1.171875 0.390625 -2.109375q0.390625 -0.953125 1.15625 -1.453125q0.78125 -0.515625 1.734375 -0.515625q0.703125 0 1.25 0.296875q0.5625 0.296875 0.90625 0.765625l0 -3.84375l1.3125 0l0 10.734375l-1.234375 0zm-4.15625 -3.875q0 1.484375 0.625 2.234375q0.625 0.734375 1.484375 0.734375q0.859375 0 1.46875 -0.703125q0.609375 -0.71875 0.609375 -2.15625q0 -1.609375 -0.625 -2.34375q-0.609375 -0.75 -1.515625 -0.75q-0.875 0 -1.46875 0.71875q-0.578125 0.71875 -0.578125 2.265625z" fill-rule="nonzero"></path><path fill="#000000" fill-opacity="0.0" d="m68.84738 244.595l0 0" fill-rule="evenodd"></path><path stroke="#9e9e9e" stroke-width="1.0" stroke-linejoin="round" stroke-linecap="butt" d="m68.84738 244.595l0 0" fill-rule="evenodd"></path><path fill="#000000" fill-opacity="0.0" d="m68.84738 244.595l0 54.078735l82.519684 0" fill-rule="evenodd"></path><path stroke="#000000" stroke-width="1.0" stroke-linejoin="round" stroke-linecap="butt" d="m68.84738 244.595l0 54.078735l82.519684 0" fill-rule="evenodd"></path><path fill="#000000" fill-opacity="0.0" d="m415.67978 18.67979l107.71652 0l0 25.637794l-107.71652 0z" fill-rule="evenodd"></path><path fill="#000000" d="m425.8204 41.75979l0 -10.734373l1.453125 0l5.640625 8.421873l0 -8.421873l1.375 0l0 10.734373l-1.46875 0l-5.640625 -8.4375l0 8.4375l-1.359375 0zm10.381165 3.0l-0.15625 -1.234375q0.4375 0.109375 0.75 0.109375q0.453125 0 0.703125 -0.15625q0.265625 -0.140625 0.4375 -0.40625q0.125 -0.1875 0.40625 -0.96875q0.03125 -0.109375 0.109375 -0.328125l-2.953125 -7.796875l1.421875 0l1.625 4.5q0.3125 0.859375 0.5625 1.8125q0.234375 -0.90625 0.546875 -1.78125l1.65625 -4.53125l1.328125 0l-2.96875 7.90625q-0.46875 1.28125 -0.734375 1.765625q-0.359375 0.65625 -0.8125 0.953125q-0.453125 0.3125 -1.078125 0.3125q-0.375 0 -0.84375 -0.15625zm12.453125 -5.84375l1.296875 0.15625q-0.203125 1.34375 -1.09375 2.109375q-0.875 0.75 -2.140625 0.75q-1.59375 0 -2.5625 -1.03125q-0.96875 -1.046875 -0.96875 -3.0q0 -1.265625 0.40625 -2.203125q0.421875 -0.953125 1.265625 -1.421875q0.859375 -0.46875 1.859375 -0.46875q1.265625 0 2.078125 0.640625q0.8125 0.640625 1.03125 1.8125l-1.28125 0.203125q-0.1875 -0.78125 -0.65625 -1.171875q-0.453125 -0.40625 -1.109375 -0.40625q-1.0 0 -1.625 0.71875q-0.625 0.71875 -0.625 2.265625q0 1.5625 0.59375 2.28125q0.609375 0.703125 1.578125 0.703125q0.78125 0 1.296875 -0.46875q0.515625 -0.484375 0.65625 -1.46875zm2.265625 2.84375l0 -10.734373l1.3125 0l0 6.124998l3.125 -3.171875l1.703125 0l-2.96875 2.890625l3.265625 4.890625l-1.625 0l-2.5625 -3.984375l-0.9375 0.90625l0 3.078125l-1.3125 0zm7.28125 0l0 -10.734373l1.328125 0l0 10.734373l-1.328125 0zm8.365509 -0.953125q-0.734375 0.609375 -1.40625 0.875q-0.671875 0.25 -1.453125 0.25q-1.28125 0 -1.96875 -0.625q-0.6875 -0.625 -0.6875 -1.59375q0 -0.578125 0.25 -1.046875q0.265625 -0.46875 0.6875 -0.75q0.421875 -0.296875 0.953125 -0.4375q0.375 -0.109375 1.171875 -0.203125q1.59375 -0.1875 2.34375 -0.453125q0.015625 -0.265625 0.015625 -0.34375q0 -0.8125 -0.375 -1.140625q-0.515625 -0.4375 -1.5 -0.4375q-0.9375 0 -1.390625 0.328125q-0.4375 0.3125 -0.640625 1.140625l-1.296875 -0.171875q0.171875 -0.828125 0.578125 -1.328125q0.40625 -0.515625 1.171875 -0.78125q0.765625 -0.28125 1.765625 -0.28125q1.0 0 1.609375 0.234375q0.625 0.234375 0.921875 0.59375q0.296875 0.34375 0.40625 0.890625q0.0625 0.34375 0.0625 1.21875l0 1.75q0 1.84375 0.078125 2.328125q0.09375 0.484375 0.34375 0.9375l-1.375 0q-0.203125 -0.40625 -0.265625 -0.953125zm-0.109375 -2.953125q-0.71875 0.296875 -2.15625 0.5q-0.8125 0.125 -1.15625 0.265625q-0.328125 0.140625 -0.515625 0.421875q-0.171875 0.28125 -0.171875 0.625q0 0.53125 0.390625 0.890625q0.40625 0.34375 1.171875 0.34375q0.765625 0 1.359375 -0.328125q0.59375 -0.34375 0.875 -0.921875q0.203125 -0.4375 0.203125 -1.3125l0 -0.484375zm3.166748 3.90625l0 -7.78125l1.1875 0l0 1.1875q0.453125 -0.828125 0.84375 -1.09375q0.390625 -0.265625 0.84375 -0.265625q0.671875 0 1.359375 0.421875l-0.453125 1.21875q-0.484375 -0.28125 -0.96875 -0.28125q-0.4375 0 -0.78125 0.265625q-0.34375 0.25 -0.484375 0.71875q-0.21875 0.703125 -0.21875 1.53125l0 4.078125l-1.328125 0zm5.2712708 -6.28125l0 -1.5l1.5 0l0 1.5l-1.5 0zm0 6.28125l0 -1.5l1.5 0l0 1.5l-1.5 0z" fill-rule="nonzero"></path></g></svg>

